<svg width="1000" height="1000" viewBox="0 0 1000 1000" fill="none" xmlns="http://www.w3.org/2000/svg">
<rect width="1000" height="1000" rx="80" fill="#4560FF"/>
<path fill-rule="evenodd" clip-rule="evenodd" d="M563.581 560.109C563.581 538.437 546.783 521.093 525.779 521.093H319.167C298.171 521.093 280.601 538.437 280.601 560.109L268 786.365L280.591 798.193L307.71 772.97C308.855 771.784 310.381 770.606 311.526 769.819C323.736 757.99 327.189 756.016 343.224 756.414H525.769C546.774 756.414 563.572 738.672 563.572 717L563.581 560.109Z" fill="#637381"/>
<path fill-rule="evenodd" clip-rule="evenodd" d="M550.981 548.291C550.981 526.609 534.183 509.265 513.178 509.265H306.566C285.561 509.265 268 526.609 268 548.291V785.976L295.11 760.753C296.254 759.566 297.78 758.379 298.925 757.592C311.154 745.773 314.597 743.798 330.632 744.197H513.56C534.555 744.197 551.362 726.455 551.362 704.773V548.291H550.981Z" fill="white"/>
<path fill-rule="evenodd" clip-rule="evenodd" d="M563.581 560.109C563.581 538.437 546.783 521.093 525.779 521.093H319.167C298.171 521.093 280.601 538.437 280.601 560.109L268 786.365L280.591 798.193L307.71 772.97C308.855 771.784 310.381 770.606 311.526 769.819C323.736 757.99 327.189 756.016 343.224 756.414H525.769C546.774 756.414 563.572 738.672 563.572 717L563.581 560.109Z" fill="#637381"/>
<path fill-rule="evenodd" clip-rule="evenodd" d="M550.981 548.291C550.981 526.609 534.183 509.265 513.178 509.265H306.566C285.561 509.265 268 526.609 268 548.291V785.976L295.11 760.753C296.254 759.566 297.78 758.379 298.925 757.592C311.154 745.773 314.597 743.798 330.632 744.197H513.56C534.555 744.197 551.362 726.455 551.362 704.773V548.291H550.981Z" fill="white"/>
<path fill-rule="evenodd" clip-rule="evenodd" d="M449.019 451.719C449.019 473.391 465.817 490.735 486.822 490.735H693.434C714.429 490.735 732 473.391 732 451.719V213.626L720.544 201.807L704.891 238.868C703.736 240.035 702.22 241.222 701.075 242.02C688.846 253.838 685.403 255.813 669.368 255.414H486.441C465.436 255.414 448.628 273.156 448.628 294.838V451.719H449.019Z" fill="#637381"/>
<path fill-rule="evenodd" clip-rule="evenodd" d="M437.945 439.891C437.945 461.573 454.743 478.916 475.747 478.916H682.359C703.354 478.916 720.925 461.573 720.925 439.891V202.206L693.806 227.429C692.661 228.615 691.135 229.792 689.991 230.58C677.771 242.409 674.337 244.383 658.293 243.984H475.366C454.361 243.984 437.563 261.727 437.563 283.399V439.891H437.945Z" fill="white"/>
</svg>
